<svg id="Group_7351" data-name="Group 7351" xmlns="http://www.w3.org/2000/svg" width="31.069" height="19.284" viewBox="0 0 31.069 19.284">
  <g id="Group_7350" data-name="Group 7350">
    <rect id="Rectangle_1549" data-name="Rectangle 1549" width="31.069" height="19.284" rx="2.5" fill="#fff"/>
  </g>
  <path id="Path_6816" data-name="Path 6816" d="M483.685,262.614v14.541h5.322a2.407,2.407,0,0,0,2.407-2.409V260.2h-5.32A2.409,2.409,0,0,0,483.685,262.614Zm3.866,8.255a2.189,2.189,0,1,1,2.188-2.19A2.188,2.188,0,0,1,487.551,270.869Z" transform="translate(-472.015 -259.038)" fill="#c00"/>
  <path id="Path_6817" data-name="Path 6817" d="M492.617,262.614v14.541h5.32a2.409,2.409,0,0,0,2.409-2.409V260.2h-5.321A2.408,2.408,0,0,0,492.617,262.614Zm3.865,8.255a2.189,2.189,0,1,1,2.189-2.19A2.189,2.189,0,0,1,496.482,270.869Z" transform="translate(-471.157 -259.038)" fill="#390"/>
  <path id="Path_6818" data-name="Path 6818" d="M474.753,262.614v14.541h5.321a2.407,2.407,0,0,0,2.407-2.409V260.2h-5.32A2.409,2.409,0,0,0,474.753,262.614Zm3.864,8.255a2.189,2.189,0,1,1,2.19-2.19A2.189,2.189,0,0,1,478.617,270.869Z" transform="translate(-472.873 -259.038)" fill="#06c"/>
</svg>
