<svg id="Group_7352" data-name="Group 7352" xmlns="http://www.w3.org/2000/svg" width="31.07" height="19.284" viewBox="0 0 31.07 19.284">
  <path id="Rectangle_1550" data-name="Rectangle 1550" d="M2.5,0H28.569a2.5,2.5,0,0,1,2.5,2.5V16.784a2.5,2.5,0,0,1-2.5,2.5H2.5a2.5,2.5,0,0,1-2.5-2.5V2.5A2.5,2.5,0,0,1,2.5,0Z" fill="#e4e4e4"/>
  <path id="Path_6819" data-name="Path 6819" d="M537.263,266.7h-2.171a2.81,2.81,0,0,0-2.844-3.346A4.032,4.032,0,0,0,528.4,266.7l-1.007,6.7h8.866a3.3,3.3,0,0,0,3.152-2.741l.184-1.219A2.3,2.3,0,0,0,537.263,266.7Z" transform="translate(-512.547 -258.735)" fill="#09c"/>
  <path id="Path_6820" data-name="Path 6820" d="M529.348,266.7h-4.534a2.811,2.811,0,0,0-2.844-3.346,4.03,4.03,0,0,0-3.849,3.346l-.6,3.959a2.3,2.3,0,0,0,2.329,2.741h8.488Z" transform="translate(-513.498 -258.735)" fill="#039"/>
</svg>
