<svg id="Group_7355" data-name="Group 7355" xmlns="http://www.w3.org/2000/svg" width="31.07" height="19.285" viewBox="0 0 31.07 19.285">
  <g id="Group_7353" data-name="Group 7353">
    <path id="Rectangle_1551" data-name="Rectangle 1551" d="M2.5,0h26.07a2.5,2.5,0,0,1,2.5,2.5V16.784a2.5,2.5,0,0,1-2.5,2.5H2.5a2.5,2.5,0,0,1-2.5-2.5V2.5A2.5,2.5,0,0,1,2.5,0Z" fill="#fff"/>
  </g>
  <path id="Path_6821" data-name="Path 6821" d="M436.293,275.19l.391,2.156h23.48a2.741,2.741,0,0,0,2.741-2.74v-4.24Z" transform="translate(-431.836 -258.061)" fill="#127b39"/>
  <path id="Path_6822" data-name="Path 6822" d="M436.162,274.644l-1.445-7.972a2.74,2.74,0,0,1,2.207-3.185l21.507-3.9a2.742,2.742,0,0,1,3.186,2.208l1.444,7.971Z" transform="translate(-431.991 -259.101)" fill="#333"/>
  <g id="Group_7354" data-name="Group 7354" transform="translate(5.267 2.873)">
    <path id="Path_6823" data-name="Path 6823" d="M443.407,267.371a4.875,4.875,0,0,1,.709-3.532l-4.836.882a2.739,2.739,0,0,0-2.2,3.186l.218,1.2a2.741,2.741,0,0,0,3.187,2.2l4.841-.882A4.876,4.876,0,0,1,443.407,267.371Z" transform="translate(-437.032 -261.561)" fill="#f90"/>
    <path id="Path_6824" data-name="Path 6824" d="M455.117,261.806l-5.215.95a4.874,4.874,0,0,1,1.2,6.592l5.22-.951a2.741,2.741,0,0,0,2.2-3.189l-.219-1.2A2.737,2.737,0,0,0,455.117,261.806Z" transform="translate(-435.795 -261.761)" fill="#f90"/>
  </g>
  <path id="Path_6825" data-name="Path 6825" d="M450.834,265.951a3.348,3.348,0,1,1-3.894-2.692A3.35,3.35,0,0,1,450.834,265.951Z" transform="translate(-431.077 -258.749)" fill="#f90"/>
  <path id="Path_6826" data-name="Path 6826" d="M452.239,276.173a1.556,1.556,0,1,1,0-3.106h6.739a1.556,1.556,0,1,1,0,3.106Z" transform="translate(-430.461 -257.802)" fill="#fff"/>
</svg>
