<svg id="Group_7358" data-name="Group 7358" xmlns="http://www.w3.org/2000/svg" width="31.069" height="19.284" viewBox="0 0 31.069 19.284">
  <path id="Rectangle_1555" data-name="Rectangle 1555" d="M2.5,0H28.57a2.5,2.5,0,0,1,2.5,2.5V16.784a2.5,2.5,0,0,1-2.5,2.5H2.5a2.5,2.5,0,0,1-2.5-2.5V2.5A2.5,2.5,0,0,1,2.5,0Z" transform="translate(0 0)" fill="#e4e4e4"/>
  <path id="Path_6829" data-name="Path 6829" d="M406.664,298.039a7.323,7.323,0,0,1-.807,3.349h9.722a2.739,2.739,0,0,0,2.74-2.739v-1.219a2.74,2.74,0,0,0-2.74-2.74h-9.722A7.335,7.335,0,0,1,406.664,298.039Z" transform="translate(-390.027 -288.397)" fill="#333"/>
  <path id="Path_6830" data-name="Path 6830" d="M400.4,292.341a5.9,5.9,0,0,0-3.151.914c-1.023,1.825-1.134,3.693-.114,4.712,1.255,1.255,3.806,1.311,5.956-.962.162-.163.008.013-.042.062-2.371,3.662-5.916,3.684-7.307,2.293-1.038-1.037-.95-2.917-.231-4.437a5.922,5.922,0,1,0,4.888-2.582Z" transform="translate(-391.121 -288.622)" fill="#e20025"/>
</svg>
