<svg id="Group_7360" data-name="Group 7360" xmlns="http://www.w3.org/2000/svg" width="31.069" height="19.284" viewBox="0 0 31.069 19.284">
  <path id="Rectangle_1557" data-name="Rectangle 1557" d="M2.5,0H28.569a2.5,2.5,0,0,1,2.5,2.5V16.784a2.5,2.5,0,0,1-2.5,2.5H2.5a2.5,2.5,0,0,1-2.5-2.5V2.5A2.5,2.5,0,0,1,2.5,0Z" transform="translate(0 0)" fill="#d5d5d5"/>
  <path id="Path_6837" data-name="Path 6837" d="M490.937,294.542a4.77,4.77,0,0,1,2.376.631h3.054a6.844,6.844,0,0,0-10.86,0h3.053A4.774,4.774,0,0,1,490.937,294.542Z" transform="translate(-471.84 -288.608)" fill="#e20025"/>
  <path id="Path_6838" data-name="Path 6838" d="M496.889,296.491h-3.937a1.493,1.493,0,0,0-2.358,0h-11.06a2.738,2.738,0,0,0-2.739,2.739v1.219a2.74,2.74,0,0,0,2.739,2.74h17.355a2.74,2.74,0,0,0,2.739-2.74V299.23A2.738,2.738,0,0,0,496.889,296.491Z" transform="translate(-472.677 -288.279)" fill="#069"/>
  <path id="Path_6839" data-name="Path 6839" d="M480.779,297.545a2.138,2.138,0,0,0,0,4.276Z" transform="translate(-472.499 -288.122)" fill="#fff"/>
</svg>
