<svg id="Group_7359" data-name="Group 7359" xmlns="http://www.w3.org/2000/svg" width="31.07" height="19.284" viewBox="0 0 31.07 19.284">
  <path id="Rectangle_1556" data-name="Rectangle 1556" d="M2.5,0h26.07a2.5,2.5,0,0,1,2.5,2.5V16.784a2.5,2.5,0,0,1-2.5,2.5H2.5a2.5,2.5,0,0,1-2.5-2.5V2.5A2.5,2.5,0,0,1,2.5,0Z" transform="translate(0 0)" fill="#e4e4e4"/>
  <path id="Path_6831" data-name="Path 6831" d="M437.562,297.9l5.832-2.306-1.772-.808-5.781,2.147Z" transform="translate(-431.879 -288.388)" fill="#03c"/>
  <path id="Path_6832" data-name="Path 6832" d="M438.275,298.318l1.934,1.088,5.89-2.585-1.971-.9Z" transform="translate(-431.645 -288.278)" fill="#03c"/>
  <path id="Path_6833" data-name="Path 6833" d="M444.771,293.484l4.728,1.869,1.777-.779-4.72-1.752Z" transform="translate(-431.021 -288.576)" fill="#c00"/>
  <path id="Path_6834" data-name="Path 6834" d="M444.057,293.754l-1.964.73,4.72,2.071,1.974-.866Z" transform="translate(-431.278 -288.487)" fill="#c00"/>
  <path id="Path_6835" data-name="Path 6835" d="M444.118,301.914l2.5,1.4,11.573-6.5-2.418-.9Z" transform="translate(-431.084 -288.278)" fill="#c00"/>
  <path id="Path_6836" data-name="Path 6836" d="M454.883,295.591l-2.174-.808-11.7,5.332,2.19,1.229Z" transform="translate(-431.382 -288.388)" fill="#c00"/>
</svg>
