<svg id="Group_49" data-name="Group 49" xmlns="http://www.w3.org/2000/svg" width="419.49" height="28" viewBox="0 0 419.49 28">
  <g id="Group_39" data-name="Group 39" transform="translate(391.49 0)">
    <ellipse id="Ellipse_11" data-name="Ellipse 11" cx="10.688" cy="10.688" rx="10.688" ry="10.688" transform="matrix(-0.388, -0.921, 0.921, -0.388, 8.303, 28)" fill="#ff6b38"/>
  </g>
  <g id="Group_40" data-name="Group 40" transform="translate(344.093 4.168)">
    <ellipse id="Ellipse_12" data-name="Ellipse 12" cx="9.833" cy="9.832" rx="9.833" ry="9.832" transform="translate(0)" fill="#ff6b38"/>
  </g>
  <g id="Group_41" data-name="Group 41" transform="translate(295.094 5.023)">
    <ellipse id="Ellipse_13" data-name="Ellipse 13" cx="8.977" cy="8.977" rx="8.977" ry="8.977" transform="translate(0)" fill="#ff6b38"/>
  </g>
  <g id="Group_42" data-name="Group 42" transform="translate(244.968 3.04)">
    <ellipse id="Ellipse_14" data-name="Ellipse 14" cx="8.122" cy="8.122" rx="8.122" ry="8.122" transform="translate(7.522 21.919) rotate(-117.585)" fill="#ff6b38"/>
  </g>
  <g id="Group_43" data-name="Group 43" transform="translate(202.228 6.734)">
    <ellipse id="Ellipse_15" data-name="Ellipse 15" cx="7.267" cy="7.267" rx="7.267" ry="7.267" transform="translate(0 0)" fill="#ff6b38"/>
  </g>
  <g id="Group_44" data-name="Group 44" transform="translate(157.06 6.287)">
    <ellipse id="Ellipse_16" data-name="Ellipse 16" cx="6.411" cy="6.411" rx="6.411" ry="6.411" transform="translate(2.946 15.425) rotate(-103.283)" fill="#ff6b38"/>
  </g>
  <g id="Group_45" data-name="Group 45" transform="translate(115.077 7.316)">
    <ellipse id="Ellipse_17" data-name="Ellipse 17" cx="5.556" cy="5.556" rx="5.556" ry="5.556" transform="translate(2.553 13.368) rotate(-103.282)" fill="#ff6b38"/>
  </g>
  <g id="Group_46" data-name="Group 46" transform="translate(75.067 8.607)">
    <ellipse id="Ellipse_18" data-name="Ellipse 18" cx="4.701" cy="4.701" rx="4.701" ry="4.701" transform="translate(1.506 10.786) rotate(-99.217)" fill="#ff6b38"/>
  </g>
  <g id="Group_47" data-name="Group 47" transform="translate(37.024 10.155)">
    <ellipse id="Ellipse_19" data-name="Ellipse 19" cx="3.845" cy="3.845" rx="3.845" ry="3.845" transform="translate(0)" fill="#ff6b38"/>
  </g>
  <g id="Group_48" data-name="Group 48" transform="translate(0 11.01)">
    <path id="Path_94" data-name="Path 94" d="M2990.542,101.949a2.99,2.99,0,1,0,2.99-2.99A2.99,2.99,0,0,0,2990.542,101.949Z" transform="translate(-2990.542 -98.959)" fill="#ff6b38"/>
  </g>
</svg>
