<svg xmlns="http://www.w3.org/2000/svg" width="131" height="131" viewBox="0 0 131 131">
  <g id="Group_7550" data-name="Group 7550" transform="translate(-895 -325)">
    <g id="Group_7381" data-name="Group 7381" transform="translate(82 -277)">
      <circle id="Ellipse_188" data-name="Ellipse 188" cx="65.5" cy="65.5" r="65.5" transform="translate(813 602)" fill="#4f008c" opacity="0.08"/>
      <circle id="Ellipse_189" data-name="Ellipse 189" cx="55.5" cy="55.5" r="55.5" transform="translate(823 612)" fill="#4f008c"/>
    </g>
    <path id="Path_6841" data-name="Path 6841" d="M795.564,385a13.839,13.839,0,0,0-.728-4.165,7.813,7.813,0,0,0-2.78-3.85c-4.5-3.2-11.391-1.5-15.688-7.195,0,0-1.576-1.781,1.942-6.124h0c.02-.025.035-.047.056-.072,3.6-4.4,3.9-11.392,3-16.789a10.908,10.908,0,0,0-7.8-8.458h0q-.417-.128-.845-.227l-.034-.007c-.27-.06-.541-.114-.815-.157-.079-.012-.159-.019-.239-.03-.213-.029-.426-.059-.64-.075-.306-.025-.613-.039-.922-.039s-.615.014-.922.039c-.215.017-.427.047-.64.075-.079.011-.159.018-.238.03-.274.043-.546.1-.816.157l-.034.007q-.426.1-.844.227h0a10.908,10.908,0,0,0-7.795,8.458c-.9,5.4-.6,12.391,3,16.789.019.024.035.046.056.072h0c3.519,4.343,1.943,6.124,1.943,6.124a11.185,11.185,0,0,1-.834.984c-4.315,4.517-10.639,3.212-14.854,6.21a7.811,7.811,0,0,0-2.781,3.85,13.847,13.847,0,0,0-.728,4.165c-.015.484-.008.92.009,1.287.032.734.1,1.19.1,1.19h50.763s.069-.456.1-1.19C795.572,385.916,795.579,385.48,795.564,385Z" transform="translate(190.095 28.192)" fill="#fff" fill-rule="evenodd"/>
  </g>
</svg>
