<svg xmlns="http://www.w3.org/2000/svg" width="250.365" height="86" viewBox="0 0 250.365 86">
  <g id="Group_32" data-name="Group 32" transform="translate(-74.694 -172.992)">
    <g id="Group_29" data-name="Group 29" transform="translate(74.694 172.992)">
      <path id="Path_63" data-name="Path 63" d="M147.836,265.7l-6.154-52.679a1.045,1.045,0,0,0-1.038-.924H81.893a1.046,1.046,0,0,0-1.039.924L74.7,265.7a1.045,1.045,0,0,0,1.039,1.166h23.19l.021,13.713,18.968-13.713H146.8a1.045,1.045,0,0,0,1.038-1.166Z" transform="translate(-74.694 -194.582)" fill="#4f008c"/>
      <path id="Path_64" data-name="Path 64" d="M153.815,185.908a13.421,13.421,0,0,0-26.824.077,1.3,1.3,0,1,0,2.317-.053,11.144,11.144,0,0,1,3.243-7.354,11.07,11.07,0,0,1,15.709,0,11.134,11.134,0,0,1,3.243,7.4,1.3,1.3,0,1,0,2.312-.067Z" transform="translate(-103.496 -172.992)" fill="#4f008c"/>
    </g>
    <path id="Path_65" data-name="Path 65" d="M115.813,267.971c-2.669-.442-3.354-1.893-3.237-4.085.117-2.291,1.614-9.865,2.624-12.038,1.235-2.678,3.436-4.256,7.6-4.31h6.709c7.782,0,.865,8-3.715,13.192-2.994,3.381-5,8.052-9.982,7.241Zm6.664-10.731h2.768v-2.074h-2.768V252.4h-2.065v2.768h-2.769v2.074h2.769v2.769h2.065Zm20.658.505a1.222,1.222,0,1,0-1.226-1.226,1.228,1.228,0,0,0,1.226,1.226Zm-5.212,0a1.222,1.222,0,1,0-1.226-1.226,1.228,1.228,0,0,0,1.226,1.226Zm2.606,2.606a1.222,1.222,0,1,0-1.226-1.226,1.228,1.228,0,0,0,1.226,1.226Zm0-5.212a1.222,1.222,0,1,0-1.226-1.226,1.228,1.228,0,0,0,1.226,1.226Zm-9.621-9.874c-5.933-.1-11.488-.83-15.483,2.507-3.6,3.012-3.778,8.54-4.833,14.293-.622,3.39-.505,5.446,1.758,6.97a9.066,9.066,0,0,0,7.953.676c3.462-1.479,6.339-8.151,9.576-9.243a3.34,3.34,0,0,1,2.056,0c3.237,1.091,6.114,7.764,9.577,9.243a9.065,9.065,0,0,0,7.953-.676c2.263-1.524,2.38-3.58,1.758-6.97-1.055-5.753-1.235-11.281-4.833-14.293-3.995-3.336-9.549-2.606-15.483-2.507Z" transform="translate(-19.639 -39.826)" fill="#fff" fill-rule="evenodd"/>
    <g id="Group_30" data-name="Group 30" transform="translate(157.457 199.29)">
      <path id="Path_66" data-name="Path 66" d="M267.83,232.944c3.574,0,5.931,1.43,7.414,3.733l-1.906,1.191a5.92,5.92,0,0,0-5.428-2.807c-3.256,0-6.063,2.621-6.063,7.467,0,4.687,2.86,7.467,6.566,7.467a5.765,5.765,0,0,0,4.608-1.854v-3.972h-4.634v-2.065h6.964v6.884a8.552,8.552,0,0,1-6.991,3.125c-5.269,0-8.9-4.1-8.9-9.585C259.463,236.889,262.9,232.944,267.83,232.944Z" transform="translate(-259.463 -232.388)" fill="#191919"/>
      <path id="Path_67" data-name="Path 67" d="M306.057,249.157a7.092,7.092,0,0,1,4.236,1.35v-1.669c0-1.8-.688-3.177-3.469-3.177a5.693,5.693,0,0,0-3.839,1.456l-1.376-1.456a8.2,8.2,0,0,1,5.4-1.959c3.575,0,5.508,1.879,5.508,4.66v9.373h-2.224v-1.483a5.831,5.831,0,0,1-4.236,1.8c-3.2,0-5.216-2.013-5.216-4.448S302.854,249.157,306.057,249.157Zm-2.939,4.448c0,1.642,1.377,2.489,3.469,2.489a5.366,5.366,0,0,0,3.707-1.721V252.52a5.613,5.613,0,0,0-3.707-1.4C304.5,251.117,303.118,251.964,303.118,253.606Z" transform="translate(-282.307 -238.328)" fill="#191919"/>
      <path id="Path_68" data-name="Path 68" d="M337.113,257.736h-2.224V244.021h2.224v1.35a6.493,6.493,0,0,1,4.21-1.668,4.1,4.1,0,0,1,3.892,2.092,7.037,7.037,0,0,1,4.819-2.092c2.912,0,4.554,1.8,4.554,5.031v9h-2.224v-8.473c0-2.277-.636-3.6-2.78-3.6A5.023,5.023,0,0,0,345.8,247.7a6.3,6.3,0,0,1,.08,1.033v9h-2.224v-8.473c0-2.277-.636-3.6-2.78-3.6a5.059,5.059,0,0,0-3.76,1.88Z" transform="translate(-301.104 -238.328)" fill="#191919"/>
      <path id="Path_69" data-name="Path 69" d="M385.074,250.878c0-4.131,2.595-7.175,6.514-7.175,3.813,0,6.434,2.992,6.434,7.255,0,.265,0,.556-.026.821H387.4c.292,2.674,1.986,4.316,4.554,4.316a4.762,4.762,0,0,0,3.76-1.88l1.642,1.191a6.472,6.472,0,0,1-5.269,2.648A6.828,6.828,0,0,1,385.074,250.878Zm10.645-1.006a4.184,4.184,0,0,0-4.131-4.21c-2.3,0-3.866,1.615-4.184,4.21Z" transform="translate(-328.81 -238.328)" fill="#191919"/>
      <path id="Path_70" data-name="Path 70" d="M419.707,254a6.017,6.017,0,0,0,4.5,2.092c2.013,0,2.966-.953,2.966-2.012,0-1.324-1.033-1.906-3.548-2.622-3.574-1.006-4.766-2.145-4.766-4.1,0-2.039,1.615-3.654,4.766-3.654a7.069,7.069,0,0,1,5.163,2.065l-1.509,1.35a5.155,5.155,0,0,0-3.574-1.456c-1.509,0-2.568.609-2.568,1.589,0,1.006.662,1.535,3.469,2.33,3.2.9,4.845,2.118,4.845,4.369,0,2.41-1.747,4.1-5.11,4.1a8.055,8.055,0,0,1-6.223-2.621Z" transform="translate(-347.052 -238.328)" fill="#191919"/>
      <path id="Path_71" data-name="Path 71" d="M474.462,252.114c-5.269,0-8.288-4.21-8.288-9.585s3.018-9.585,8.288-9.585c5.242,0,8.261,4.21,8.261,9.585S479.7,252.114,474.462,252.114Zm0-2.118c3.574,0,5.878-2.886,5.878-7.467s-2.3-7.467-5.878-7.467c-3.6,0-5.9,2.886-5.9,7.467S470.861,250,474.462,250Z" transform="translate(-373.583 -232.388)" fill="#191919"/>
      <path id="Path_72" data-name="Path 72" d="M521.779,248.734v9h-2.223v-8.473c0-2.277-.98-3.6-3.125-3.6a5.884,5.884,0,0,0-4.289,2.171v9.9h-2.224V244.021h2.224v1.615a6.622,6.622,0,0,1,4.74-1.933C519.793,243.7,521.779,245.5,521.779,248.734Z" transform="translate(-397.732 -238.328)" fill="#191919"/>
      <path id="Path_73" data-name="Path 73" d="M544.675,231.88H546.9v19.329h-2.224Z" transform="translate(-416.921 -231.801)" fill="#191919"/>
      <path id="Path_74" data-name="Path 74" d="M559.162,231.7a1.483,1.483,0,1,1-1.483,1.483A1.448,1.448,0,0,1,559.162,231.7ZM558.05,237.4h2.224v13.715H558.05Z" transform="translate(-424.1 -231.703)" fill="#191919"/>
      <path id="Path_75" data-name="Path 75" d="M583.9,248.734v9H581.68v-8.473c0-2.277-.98-3.6-3.125-3.6a5.884,5.884,0,0,0-4.289,2.171v9.9h-2.224V244.021h2.224v1.615a6.622,6.622,0,0,1,4.74-1.933C581.918,243.7,583.9,245.5,583.9,248.734Z" transform="translate(-432.03 -238.328)" fill="#191919"/>
      <path id="Path_76" data-name="Path 76" d="M604.73,250.878c0-4.131,2.595-7.175,6.514-7.175,3.813,0,6.435,2.992,6.435,7.255,0,.265,0,.556-.026.821H607.061c.291,2.674,1.986,4.316,4.554,4.316a4.761,4.761,0,0,0,3.76-1.88l1.642,1.191a6.472,6.472,0,0,1-5.269,2.648A6.828,6.828,0,0,1,604.73,250.878Zm10.645-1.006a4.183,4.183,0,0,0-4.131-4.21c-2.3,0-3.866,1.615-4.183,4.21Z" transform="translate(-450.076 -238.328)" fill="#191919"/>
    </g>
    <g id="Group_31" data-name="Group 31" transform="translate(156.584 228.371)">
      <path id="Path_77" data-name="Path 77" d="M261.815,298.59h-4.3v-.711H266.9v.711h-4.3v12.384h-.786Z" transform="translate(-257.513 -297.318)" fill="#191919"/>
      <path id="Path_78" data-name="Path 78" d="M290.206,303.922v6.36h-.748v-6.155c0-2.077-.86-3.087-2.731-3.087a5.085,5.085,0,0,0-3.573,1.871v7.371H282.4V296.626h.748v5.462a5.289,5.289,0,0,1,3.7-1.721C288.99,300.368,290.206,301.564,290.206,303.922Z" transform="translate(-271.255 -296.626)" fill="#191919"/>
      <path id="Path_79" data-name="Path 79" d="M304.834,310.03c0-2.937,1.852-5.051,4.377-5.051,2.507,0,4.4,2.039,4.4,4.957a3.458,3.458,0,0,1-.019.412h-8.006c.112,2.226,1.534,4.1,3.872,4.1a3.727,3.727,0,0,0,3.087-1.515l.6.411a4.4,4.4,0,0,1-3.648,1.777C306.518,315.118,304.834,312.686,304.834,310.03Zm8.007-.356c-.075-2.395-1.609-4.022-3.63-4.022-2,0-3.5,1.646-3.61,4.022Z" transform="translate(-283.638 -301.237)" fill="#191919"/>
      <path id="Path_80" data-name="Path 80" d="M346.505,297.378a5.649,5.649,0,0,1,5.014,2.638l-.655.412a4.863,4.863,0,0,0-4.34-2.339c-2.974,0-5.069,2.432-5.069,6.061,0,3.479,1.964,6.061,5.312,6.061a5.258,5.258,0,0,0,3.929-1.664v-3.779h-3.816v-.711h4.6v4.789a6.131,6.131,0,0,1-4.733,2.076c-3.872,0-6.08-2.993-6.08-6.772C340.669,300.221,343.008,297.378,346.505,297.378Z" transform="translate(-303.421 -297.041)" fill="#191919"/>
      <path id="Path_81" data-name="Path 81" d="M372.642,308.963a5.254,5.254,0,0,1,3.479,1.216v-1.665c0-1.983-.954-2.862-3.012-2.862a4.492,4.492,0,0,0-2.956,1.123l-.5-.505a5.547,5.547,0,0,1,3.592-1.29c2.263,0,3.629,1.047,3.629,3.367v6.547h-.748v-1.1a4.988,4.988,0,0,1-3.479,1.328c-2.1,0-3.573-1.253-3.573-3.086C369.069,310.217,370.547,308.963,372.642,308.963Zm-2.787,3.068c0,1.5,1.178,2.413,2.9,2.413a4.886,4.886,0,0,0,3.367-1.365v-2.151a4.928,4.928,0,0,0-3.367-1.291C371.033,309.637,369.855,310.535,369.855,312.032Z" transform="translate(-319.1 -301.237)" fill="#191919"/>
      <path id="Path_82" data-name="Path 82" d="M399.537,306.625a5.15,5.15,0,0,1,3.63-1.646c2.151,0,3.049,1.178,3.049,3.479v6.435h-.748v-6.211c0-1.908-.524-3.012-2.431-3.012a4.841,4.841,0,0,0-3.312,1.627,4.127,4.127,0,0,1,.112.992v6.6h-.748v-6.4c0-1.889-.73-2.843-2.376-2.843a4.487,4.487,0,0,0-3.255,1.74v7.5h-.748V305.2h.748v1.347a4.859,4.859,0,0,1,3.385-1.571A2.705,2.705,0,0,1,399.537,306.625Z" transform="translate(-332.151 -301.237)" fill="#191919"/>
      <path id="Path_83" data-name="Path 83" d="M427.877,310.03c0-2.937,1.852-5.051,4.377-5.051,2.507,0,4.4,2.039,4.4,4.957a3.453,3.453,0,0,1-.019.412h-8.006c.112,2.226,1.534,4.1,3.872,4.1a3.727,3.727,0,0,0,3.087-1.515l.6.411a4.4,4.4,0,0,1-3.648,1.777C429.561,315.118,427.877,312.686,427.877,310.03Zm8.007-.356c-.075-2.395-1.609-4.022-3.63-4.022-2,0-3.5,1.646-3.61,4.022Z" transform="translate(-351.567 -301.237)" fill="#191919"/>
      <path id="Path_84" data-name="Path 84" d="M452.975,307.5v7.389h-.748V305.2h.748v1.459a4.127,4.127,0,0,1,3.274-1.683c.187,0,.5.019.673.038v.692a5.648,5.648,0,0,0-.8-.056A4.025,4.025,0,0,0,452.975,307.5Z" transform="translate(-365.009 -301.237)" fill="#191919"/>
      <path id="Path_85" data-name="Path 85" d="M471.658,312.443c0-1.216-.935-1.871-2.975-2.395-2.226-.58-3.292-1.291-3.292-2.694,0-1.441,1.216-2.375,3.217-2.375a4.872,4.872,0,0,1,3.311,1.234l-.524.486a4.178,4.178,0,0,0-2.825-1.048c-1.44,0-2.394.6-2.394,1.684,0,1.048.86,1.534,2.88,2.058,2.245.58,3.386,1.5,3.386,3.031,0,1.683-1.422,2.693-3.573,2.693a5.671,5.671,0,0,1-3.947-1.571l.542-.5a4.977,4.977,0,0,0,3.423,1.4C470.61,314.445,471.658,313.64,471.658,312.443Z" transform="translate(-372.019 -301.237)" fill="#191919"/>
      <path id="Path_86" data-name="Path 86" d="M501.688,310.974l-4.4-13.095h.842l4,12.085,3.349-12.085h.973l3.348,12.085,4-12.085h.842l-4.4,13.095h-.9l-3.386-12.066-3.386,12.066Z" transform="translate(-389.889 -297.318)" fill="#191919"/>
      <path id="Path_87" data-name="Path 87" d="M540.418,308.963a5.256,5.256,0,0,1,3.48,1.216v-1.665c0-1.983-.954-2.862-3.012-2.862a4.49,4.49,0,0,0-2.955,1.123l-.5-.505a5.546,5.546,0,0,1,3.592-1.29c2.263,0,3.629,1.047,3.629,3.367v6.547H543.9v-1.1a4.991,4.991,0,0,1-3.48,1.328c-2.1,0-3.573-1.253-3.573-3.086C536.845,310.217,538.323,308.963,540.418,308.963Zm-2.787,3.068c0,1.5,1.178,2.413,2.9,2.413a4.888,4.888,0,0,0,3.367-1.365v-2.151a4.93,4.93,0,0,0-3.367-1.291C538.809,309.637,537.631,310.535,537.631,312.032Z" transform="translate(-411.725 -301.237)" fill="#191919"/>
      <path id="Path_88" data-name="Path 88" d="M560.432,319.135l1.553-4.1-3.8-9.56h.8l3.368,8.587,3.236-8.587h.8l-5.182,13.656Z" transform="translate(-423.508 -301.514)" fill="#191919"/>
    </g>
  </g>
</svg>
