<svg xmlns="http://www.w3.org/2000/svg" xmlns:xlink="http://www.w3.org/1999/xlink" width="31" height="19" viewBox="0 0 31 19">
  <defs>
    <clipPath id="clip-path">
      <rect id="Rectangle_9" data-name="Rectangle 9" width="31" height="19" rx="2" transform="translate(1032 -173.5)" fill="#fff" stroke="#707070" stroke-width="1"/>
    </clipPath>
  </defs>
  <g id="Mask_Group_1" data-name="Mask Group 1" transform="translate(-1032 173.5)" clip-path="url(#clip-path)">
    <g id="g4701" transform="translate(1031.35 -174.867)">
      <path id="_x32_1461584" d="M32.695-78.2V-100H0v21.8Z" transform="translate(0 100)" fill="#006c35"/>
      <g id="g4699" transform="translate(8.174 5.449)">
        <g id="g4695" transform="translate(0 0)">
          <g id="g4623" transform="translate(9.181)">
            <path id="path4621" d="M467.717,147.9a4.439,4.439,0,0,1,.564-.384,1.145,1.145,0,0,1-.417.568c-.093.072-.05.2-.063.3-.05-.012-.1-.024-.147-.04.046.6.114,1.2.143,1.8a.226.226,0,0,0,.067.184,4.079,4.079,0,0,1,.766.808,1.55,1.55,0,0,1,.164.4,2.221,2.221,0,0,0,.021-.708q-.151-1.369-.273-2.745a1.842,1.842,0,0,1-.013-.34.212.212,0,0,1,.219-.184.526.526,0,0,1,.13.2,1.208,1.208,0,0,1,.139.6c-.05-.016-.1-.036-.156-.056.076.62.151,1.241.2,1.865a4.863,4.863,0,0,1,0,1.261,1.515,1.515,0,0,1-.6.993,2.711,2.711,0,0,1-.938.356.862.862,0,0,1-.4,0c.139-.076.295-.132.442-.2a3.844,3.844,0,0,0,.614-.32,1.978,1.978,0,0,0,.5-.416,2.414,2.414,0,0,0-.841-1.145,7.334,7.334,0,0,1-.034,1.325.455.455,0,0,1-.13.268,4.223,4.223,0,0,1-.072-.564c-.038-.408-.072-.82-.1-1.229a.254.254,0,0,0-.118-.2c-.248-.208-.48-.44-.719-.656.008.252.046.5.063.748.029.336.034.672.067,1.009a1.552,1.552,0,0,1-.063.708.642.642,0,0,1-.522.408,1.461,1.461,0,0,1-.374-.02.417.417,0,0,1-.29-.232c-.072-.136-.109-.288-.168-.428a.557.557,0,0,0-.3.132,1.559,1.559,0,0,0-.3.612.575.575,0,0,1-.223.328.416.416,0,0,1-.4-.024.778.778,0,0,1-.353-.488c-.055-.152.021-.328-.072-.472a.613.613,0,0,1,0-.424,1.468,1.468,0,0,1,.4-.628l-.719-.624a10.265,10.265,0,0,1-.008,1.725.5.5,0,0,1-.139.308,2.188,2.188,0,0,1-.05-.332q-.088-.948-.151-1.9a.267.267,0,0,0-.076-.2,9.19,9.19,0,0,1-.7-.74,1.864,1.864,0,0,1-.324-.516c-.025-.08-.046-.192.029-.252a.659.659,0,0,1,.244.088,1.7,1.7,0,0,1,.383.3.451.451,0,0,1,.1.188c-.072,0-.139,0-.21,0a2.8,2.8,0,0,0,.5.552c-.017-.536-.076-1.077-.1-1.613a.315.315,0,0,1,.051-.212.434.434,0,0,1,.181-.1,1.744,1.744,0,0,1,.252.568.816.816,0,0,1,.013.248c-.051-.012-.1-.028-.147-.044.034.436.08.868.109,1.3a.922.922,0,0,0,.025.184.472.472,0,0,0,.1.1c.3.252.6.5.9.748.181-.156.358-.316.539-.468a.986.986,0,0,0,.118-.108c.034-.036.021-.088.021-.132-.059-.524-.1-1.049-.147-1.573-.013-.192-.042-.38-.042-.568a.22.22,0,0,1,.2-.228c.05,0,.072.052.1.084a1.737,1.737,0,0,1,.185.476.551.551,0,0,1,0,.248l-.143-.064c.063.492.114.985.16,1.477.13-.1.248-.208.37-.312s.278-.228.408-.352c-.156-.168-.32-.324-.48-.488a.894.894,0,0,1-.265-.352.619.619,0,0,1,.008-.316,1.223,1.223,0,0,1,.5.256,2.957,2.957,0,0,1,.29.264c-.008-.208-.034-.416-.05-.624a.34.34,0,0,1,.046-.232.512.512,0,0,1,.177-.1,1.537,1.537,0,0,1,.248.544.8.8,0,0,1,.021.264l-.156-.036c.017.16.034.316.055.476.2-.148.379-.316.576-.464.067-.064.189-.112.189-.224a3.511,3.511,0,0,1,0-.364.211.211,0,0,1,.219-.18A1.073,1.073,0,0,1,467.717,147.9Zm-1.027,1.157c-.034.036-.1.068-.093.128a.6.6,0,0,0,.118.136c.244.22.475.452.732.652-.008-.236-.034-.468-.046-.7s-.029-.5-.055-.744C467.12,148.687,466.914,148.879,466.691,149.055Zm-.618-.436c.055.06.105.12.16.18,0-.06,0-.12,0-.18Zm-.589,1.461c-.042.036-.093.076-.088.136a3.885,3.885,0,0,1-.046.912.341.341,0,0,1-.126.176c-.067-.292-.072-.592-.122-.888-.181.144-.353.3-.522.456a.862.862,0,0,1,.227.372.563.563,0,0,1-.177.576,1.377,1.377,0,0,1-.741.232,1.337,1.337,0,0,0,.172.488.27.27,0,0,0,.273.132.387.387,0,0,0,.231-.248,3.348,3.348,0,0,1,.3-.612.582.582,0,0,1,.459-.3c.063,0,.147-.016.185.052a3.6,3.6,0,0,0,.219.44.536.536,0,0,0,.762.044.294.294,0,0,0,.063-.256c-.1-.8-.168-1.6-.252-2.4C466.022,149.619,465.757,149.851,465.483,150.079ZM464,151.44a.61.61,0,0,0-.093.212.9.9,0,0,0,.547-.116c.051-.032.109-.084.1-.152a.5.5,0,0,0-.227-.312A3.106,3.106,0,0,0,464,151.44Z" transform="translate(-461.934 -147.514)" fill="#fff"/>
          </g>
          <path id="path4625" d="M212.558,148.473c.05-.032.1.024.13.06a1.544,1.544,0,0,1,.269.4l-.156.024c.013.24.215.4.273.632a.886.886,0,0,1,.017.432.51.51,0,0,1-.4.392.764.764,0,0,1-.665-.188,1.029,1.029,0,0,1-.206-.416,1.29,1.29,0,0,1-.273.536.988.988,0,0,1-.29.212,11.375,11.375,0,0,1,.038,1.6.562.562,0,0,1-.164.432,5.54,5.54,0,0,1-.084-.652c-.046-.444-.08-.888-.126-1.333a.792.792,0,0,1-.374-.156.747.747,0,0,1-.21-.6,2.528,2.528,0,0,1,.1-.5.609.609,0,0,0-.143.224,6.717,6.717,0,0,1-.269.8.366.366,0,0,1-.244.208.436.436,0,0,1-.4-.084.692.692,0,0,1-.156-.432.931.931,0,0,1,.05-.468.462.462,0,0,1,.206-.18.723.723,0,0,0-.122.264,1.331,1.331,0,0,0,.034.408.392.392,0,0,0,.1.224.27.27,0,0,0,.353-.008.585.585,0,0,0,.1-.2c.084-.256.151-.52.257-.768a.731.731,0,0,1,.492-.456c-.025.284-.156.548-.164.836a.537.537,0,0,0,.093.368.471.471,0,0,0,.265.14c-.025-.388-.063-.776-.088-1.169a1.892,1.892,0,0,1-.008-.436c.021-.1.13-.136.215-.168a1.43,1.43,0,0,1,.273.8l-.16-.036c.034.332.067.668.105,1a.631.631,0,0,0,.345-.252.963.963,0,0,0,.109-.816c-.034-.116-.088-.224-.114-.344a.24.24,0,0,1,.156-.264c.046-.02.067.036.088.068a1.91,1.91,0,0,1,.114.436,3.412,3.412,0,0,0,.072.588.728.728,0,0,0,.316.392.612.612,0,0,0,.4.06.181.181,0,0,0,.139-.136.563.563,0,0,0-.067-.376,3.579,3.579,0,0,1-.341-.8A.3.3,0,0,1,212.558,148.473Z" transform="translate(-209.215 -148.429)" fill="#fff"/>
          <path id="path4627" d="M459.12,149.034a.8.8,0,0,1,.349-.308,1.579,1.579,0,0,1-.151.272.428.428,0,0,0-.046.216,1.372,1.372,0,0,0,.286-.044.359.359,0,0,1-.122.2.238.238,0,0,1-.282.024A.314.314,0,0,1,459.12,149.034Z" transform="translate(-450 -148.682)" fill="#fff"/>
          <g id="g4631" transform="translate(0.082 0.06)">
            <path id="path4629" d="M215.3,149.283a.389.389,0,0,1,.185-.116,1.538,1.538,0,0,1,.261.576.658.658,0,0,1,0,.24l-.143-.048c.055.388.122.772.168,1.161.223-.108.429-.24.661-.336a.726.726,0,0,1,.227-.056.274.274,0,0,1-.13.156c-.244.124-.492.232-.732.368.021.192.042.388.067.58.109-.14.206-.316.4-.36.008.1-.025.228.051.312a.321.321,0,0,0,.387-.048,1.8,1.8,0,0,1,.063-.448c.046.02.105.028.122.084a.734.734,0,0,1,0,.436.563.563,0,0,1-.311.352.361.361,0,0,1-.295.028.627.627,0,0,1-.231-.22,1.267,1.267,0,0,0-.16.44,1.716,1.716,0,0,1-.358.945,2.792,2.792,0,0,1-1.46.912,3.185,3.185,0,0,1-.989.152,1.037,1.037,0,0,1-.522-.14c-.067-.044-.126-.1-.194-.144a1.432,1.432,0,0,0-.261.008,2.979,2.979,0,0,1-.627-.02c.252-.084.509-.148.757-.24a2.012,2.012,0,0,1,.252-1.313,1.359,1.359,0,0,1,.227-.276,2.123,2.123,0,0,0-.2.444,1.883,1.883,0,0,0,.017,1.025c.173-.056.341-.132.5-.2a7.208,7.208,0,0,0,1.107-.58,1.227,1.227,0,0,0,.353-.328.408.408,0,0,0,.034-.224,2.556,2.556,0,0,1-.547.116.47.47,0,0,1-.328-.124.408.408,0,0,1-.072-.34.656.656,0,0,1,.215-.4.487.487,0,0,1,.5-.04.757.757,0,0,1,.32.368c.236-.088.4-.3.627-.4a.53.53,0,0,0,.088.356c.055.068.147.064.223.072-.013-.192-.042-.38-.067-.568-.08-.628-.16-1.261-.227-1.893A.463.463,0,0,1,215.3,149.283Zm-1.439,2.733c-.021.044.029.072.063.088a.78.78,0,0,0,.4-.008.391.391,0,0,0-.257-.156C213.994,151.936,213.893,151.94,213.863,152.016Zm.917.26a.941.941,0,0,1-.029.376,1.185,1.185,0,0,1-.383.5,5.837,5.837,0,0,1-1.018.6,4.236,4.236,0,0,1-.492.236,4.253,4.253,0,0,0,.64-.036,3.011,3.011,0,0,0,.934-.232,2.626,2.626,0,0,0,.858-.532,1.13,1.13,0,0,0,.316-.528,1.5,1.5,0,0,0,.029-.308.8.8,0,0,1-.374-.064.629.629,0,0,1-.2-.24A2.072,2.072,0,0,1,214.78,152.276Z" transform="translate(-211.482 -149.166)" fill="#fff"/>
          </g>
          <path id="path4633" d="M395.817,151.049a.146.146,0,0,1,.185-.008.424.424,0,0,1,.185.372.7.7,0,0,1-.055.188.98.98,0,0,0-.055-.272c-.063-.088-.181-.1-.257-.176A.066.066,0,0,1,395.817,151.049Z" transform="translate(-389.016 -150.885)" fill="#fff"/>
          <path id="path4635" d="M358.1,150.886c.008-.056.063-.116.122-.084a.8.8,0,0,1,.358.4c-.059,0-.118,0-.173-.008a2.3,2.3,0,0,0,.105.328,2.011,2.011,0,0,1,.177.464.6.6,0,0,1-1.077.464,1.162,1.162,0,0,1-.164-.348,1.024,1.024,0,0,1-.45.656.758.758,0,0,1-.8-.028.512.512,0,0,1-.24-.42,3.476,3.476,0,0,1,.114-.72.527.527,0,0,0-.139.212,5.454,5.454,0,0,1-.286.808.436.436,0,0,1-.324.24.414.414,0,0,1-.37-.164.7.7,0,0,1-.088-.38,1.318,1.318,0,0,1,.143-.58,1.564,1.564,0,0,0,.05.764.272.272,0,0,0,.362.136.585.585,0,0,0,.215-.332,5.236,5.236,0,0,1,.311-.78.849.849,0,0,1,.206-.276.361.361,0,0,1,.172-.052,2.609,2.609,0,0,1-.156.636.645.645,0,0,0,.08.568.627.627,0,0,0,.614.148.769.769,0,0,0,.513-.688.936.936,0,0,0-.08-.536c-.042-.084-.122-.172-.088-.276a.352.352,0,0,1,.185-.232.775.775,0,0,1,.13.328,3.634,3.634,0,0,0,.135.824.651.651,0,0,0,.3.38.528.528,0,0,0,.459.012.207.207,0,0,0,.088-.24,7.018,7.018,0,0,0-.349-.792A.8.8,0,0,1,358.1,150.886Z" transform="translate(-349.572 -150.674)" fill="#fff"/>
          <path id="path4637" d="M510.164,151.251a.2.2,0,0,1,.257.084.1.1,0,0,1-.046.108.807.807,0,0,1-.173-.068,2.191,2.191,0,0,0-.151.44.99.99,0,0,0-.1-.212c-.059-.08-.151-.12-.219-.192a.1.1,0,0,1,.118-.116.428.428,0,0,1,.2.188C510.076,151.4,510.089,151.3,510.164,151.251Z" transform="translate(-498.811 -151.099)" fill="#fff"/>
          <path id="path4639" d="M209.466,152.036a.74.74,0,0,1,.362-.336,2.219,2.219,0,0,1-.151.276.425.425,0,0,0-.042.216,1.25,1.25,0,0,0,.29-.06.436.436,0,0,1-.13.212.24.24,0,0,1-.269.032A.3.3,0,0,1,209.466,152.036Z" transform="translate(-209.43 -151.548)" fill="#fff"/>
          <g id="g4643" transform="translate(5.001 0.183)">
            <path id="path4641" d="M347.288,152.649c.025-.132.223-.128.286-.028.042.072.063.148.105.22a.31.31,0,0,1,.059.232c-.038.132-.135.236-.147.376.046-.02.093-.044.139-.068-.013.072,0,.168-.076.208a.146.146,0,0,1-.2-.144c.013-.18.189-.32.135-.512a1.156,1.156,0,0,1-.719.492,4,4,0,0,0,.4-.3,1.064,1.064,0,0,0,.177-.252C347.381,152.813,347.271,152.753,347.288,152.649Zm.122-.012a.332.332,0,0,0,.109.1A.163.163,0,0,0,347.41,152.637Z" transform="translate(-346.872 -152.548)" fill="#fff"/>
          </g>
          <path id="path4645" d="M332.626,157.143c.063-.016.139-.04.189.016a.59.59,0,0,1,.172.564c-.034-.076-.059-.156-.1-.228C332.828,157.359,332.689,157.279,332.626,157.143Z" transform="translate(-328.143 -156.775)" fill="#fff"/>
          <path id="path4647" d="M286.055,159.963a.292.292,0,0,1,.08.244c-.1.016-.2.044-.3.068a.1.1,0,0,1-.126-.08.644.644,0,0,1,.029-.176c.021.06.042.12.063.184.025-.012.055-.02.08-.032v-.164h.059c.008.048.017.1.025.148l.1-.012C286.055,160.083,286.055,160.023,286.055,159.963Z" transform="translate(-282.927 -159.511)" fill="#fff"/>
          <path id="path4649" d="M506.171,162.749a.891.891,0,0,1,.252-.032.406.406,0,0,1-.147.116,8.456,8.456,0,0,0-.867.348c.025.052.051.1.076.152a.318.318,0,0,1-.2-.068.112.112,0,0,1,0-.168.676.676,0,0,1,.151-.08C505.683,162.929,505.923,162.829,506.171,162.749Z" transform="translate(-494.497 -162.165)" fill="#fff"/>
          <path id="path4651" d="M394.623,167.522a.778.778,0,0,1,.105-.068.629.629,0,0,0,.08.3.179.179,0,0,1-.105.256.272.272,0,0,1-.252-.084c-.055.048-.114.112-.194.1a.244.244,0,0,1-.189-.308.334.334,0,0,1,.139-.188.8.8,0,0,0-.021.264c.017.06.088.06.139.08.017-.1.021-.2.046-.3.008-.052.072-.056.105-.08a1.215,1.215,0,0,0,.029.248c.021.06.093.08.143.108A1.44,1.44,0,0,0,394.623,167.522Z" transform="translate(-387.346 -166.73)" fill="#fff"/>
          <path id="path4653" d="M289.311,173.482c.063,0,.139-.012.189.04a.582.582,0,0,1,.16.556.919.919,0,0,0-.2-.376A.381.381,0,0,1,289.311,173.482Z" transform="translate(-286.401 -172.537)" fill="#fff"/>
          <path id="path4655" d="M514.315,185.059a.546.546,0,0,1,.105-.088.65.65,0,0,0,.076.28c.042.088.042.228-.063.268a.286.286,0,0,1-.278-.064.27.27,0,0,1-.227.084.253.253,0,0,1-.164-.3c.008-.088.084-.144.143-.2a.686.686,0,0,0-.025.276c.021.06.093.048.143.06a1.241,1.241,0,0,1,.05-.308.431.431,0,0,1,.105-.056.611.611,0,0,0,.034.276c.029.052.093.056.143.072C514.353,185.259,514.323,185.159,514.315,185.059Z" transform="translate(-502.696 -183.61)" fill="#fff"/>
          <path id="path4657" d="M625.12,187.963a.1.1,0,0,1,.093-.128.3.3,0,0,1,.236.172.7.7,0,0,1,.059.564c-.038-.164-.034-.372-.185-.48A.71.71,0,0,1,625.12,187.963Z" transform="translate(-610.005 -186.37)" fill="#fff"/>
          <path id="path4659" d="M456.535,199.738a.194.194,0,0,1,.189-.052.237.237,0,0,1,0,.308.65.65,0,0,1-.522.236,2.526,2.526,0,0,0,.37-.2c.05-.036.042-.1.05-.16-.059.008-.118.02-.172.028A.807.807,0,0,1,456.535,199.738Z" transform="translate(-447.23 -197.785)" fill="#fff"/>
          <path id="path4661" d="M515.726,204.307c.038-.008.088-.032.114.008-.029.1-.13.136-.21.176-.3.14-.6.3-.9.448-.013-.028-.029-.052-.042-.08a4.745,4.745,0,0,1,.534-.316A4.352,4.352,0,0,1,515.726,204.307Z" transform="translate(-503.593 -202.23)" fill="#fff"/>
          <g id="g4665" transform="translate(2.927 2.165)">
            <path id="path4663" d="M293.279,207.262a.33.33,0,0,1,.084-.148,2.379,2.379,0,0,1,.534.876,8.461,8.461,0,0,1,.189.973,1.026,1.026,0,0,0,.173.468.86.86,0,0,0,.278.2.385.385,0,0,1,.143-.276,3.861,3.861,0,0,1,.972-.424c-.273-.008-.551,0-.825,0a4.088,4.088,0,0,1-.665-.024.514.514,0,0,1,.059-.248,1.049,1.049,0,0,1,.446-.352,4.119,4.119,0,0,1,.8-.324c-.072-.076-.181-.16-.151-.284a.386.386,0,0,1,.337-.284,1.023,1.023,0,0,1,.5.16c.093.06.206.124.24.236a.418.418,0,0,1-.093.216c-.1.12-.269.112-.412.128-.008.1-.021.212-.118.256-.029-.076-.059-.148-.093-.224a2.159,2.159,0,0,0-.934.46c.774,0,1.544-.016,2.318-.012.051,0,.1.008.151.016-.034.2-.24.3-.421.348-.366.08-.732.152-1.1.224a3.228,3.228,0,0,0-.8.244.65.65,0,0,0-.231.2,3.37,3.37,0,0,0,.56.144c.063.016.151.028.168.1a.279.279,0,0,1-.067.3.964.964,0,0,1-.37-.02,1.254,1.254,0,0,1-.854-.516,1.64,1.64,0,0,1-.227-.716,2.4,2.4,0,0,1-.32.384,3.941,3.941,0,0,1-1.136.712.507.507,0,0,1-.467,0,.54.54,0,0,1-.181-.288,4.488,4.488,0,0,1-1.2.464,4.048,4.048,0,0,1-.791.08c.139-.068.282-.12.421-.176.463-.192.917-.408,1.363-.64a.493.493,0,0,0,.16-.112,2.133,2.133,0,0,1,.109-.352.8.8,0,0,1,.3-.32,1.98,1.98,0,0,0-.189.548,4.086,4.086,0,0,0,.753-.572c.059-.064.143-.144.109-.24-.042-.136-.114-.256-.164-.388a1.324,1.324,0,0,1-.147-.6.378.378,0,0,1,.088-.172,1.357,1.357,0,0,1,.408.5l-.118.024a3.256,3.256,0,0,1,.223.58.544.544,0,0,1-.126.456,7.224,7.224,0,0,1-.972.792.38.38,0,0,0,.194.072,1.154,1.154,0,0,0,.4-.1,5.7,5.7,0,0,0,1.233-.86,5.03,5.03,0,0,0-.45-1.073A.714.714,0,0,1,293.279,207.262Zm2.234.5a.4.4,0,0,0,.185.144.377.377,0,0,0,.307-.116.609.609,0,0,0-.362-.144A.13.13,0,0,0,295.513,207.759Z" transform="translate(-289.774 -207.114)" fill="#fff"/>
          </g>
          <g id="g4669" transform="translate(0.015 2.216)">
            <path id="path4667" d="M210.256,208.6a.1.1,0,0,1,.1-.1c.143-.016.244.1.332.192a.166.166,0,0,1,.055.18c-.017.076-.105.072-.164.088-.126.008-.177.144-.273.2a1,1,0,0,1-.673.2.438.438,0,0,1,.248-.148,1.132,1.132,0,0,0,.438-.308A.694.694,0,0,1,210.256,208.6Zm.08.016a.487.487,0,0,0,.063.2c.025-.056.05-.116.072-.172A1.317,1.317,0,0,0,210.336,208.619Zm.189.26c.046,0,.093-.012.139-.016a.642.642,0,0,0-.046-.176C210.559,208.731,210.55,208.811,210.525,208.879Z" transform="translate(-209.629 -208.506)" fill="#fff"/>
          </g>
          <path id="path4671" d="M408.9,210.161a.353.353,0,0,1,.1-.072c0,.14.1.248.114.384s-.168.212-.278.148c-.034-.024-.063-.052-.093-.076-.059.052-.122.128-.21.108a.259.259,0,0,1-.181-.308.335.335,0,0,1,.147-.2,1.015,1.015,0,0,0-.034.252c.008.064.08.084.13.112a1.775,1.775,0,0,0,.059-.3c.008-.056.076-.064.114-.092a1.008,1.008,0,0,0,.025.252c.025.056.084.084.13.116C408.976,210.377,408.9,210.269,408.9,210.161Z" transform="translate(-401.114 -207.816)" fill="#fff"/>
          <path id="path4673" d="M215.261,224.047a.765.765,0,0,1,.227-.08.093.093,0,0,1,.055.16,1.313,1.313,0,0,1-.295.14c-.236.112-.471.22-.7.344a.244.244,0,0,1-.168.016.4.4,0,0,1,.147-.172C214.768,224.308,215.013,224.171,215.261,224.047Z" transform="translate(-214.19 -221.19)" fill="#fff"/>
          <path id="path4675" d="M469.873,226.51c.017-.08.109-.092.177-.116a.7.7,0,0,0,.1.332l-.109.012a.523.523,0,0,1-.189.2.89.89,0,0,1-.446.06c.16-.044.358-.056.463-.2C469.94,226.714,469.865,226.606,469.873,226.51Z" transform="translate(-459.954 -223.528)" fill="#fff"/>
          <g id="g4679" transform="translate(12.456 3.038)">
            <path id="path4677" d="M552.739,231.2c.021-.064.1-.064.151-.056a.532.532,0,0,1,.278.2.158.158,0,0,1,.021.208c-.076.06-.2.024-.265.1a.988.988,0,0,1-.825.348.436.436,0,0,1,.252-.148,1.161,1.161,0,0,0,.433-.308A.6.6,0,0,1,552.739,231.2Zm.08.048a.919.919,0,0,0,.05.212.9.9,0,0,0,.076-.172C552.9,231.273,552.857,231.261,552.819,231.249Zm.244.088a1.243,1.243,0,0,0-.059.176c.046,0,.093-.012.139-.016a.734.734,0,0,0-.046-.164C553.088,231.333,553.071,231.337,553.063,231.337Z" transform="translate(-552.099 -231.141)" fill="#fff"/>
          </g>
          <path id="path4681" d="M339.8,235.138a.184.184,0,0,1,.273.056c.025.052-.029.092-.051.132a.574.574,0,0,0-.13-.068c-.042-.012-.055.036-.067.064a3.821,3.821,0,0,0-.114.372,1.037,1.037,0,0,0-.1-.22,1.322,1.322,0,0,0-.2-.172c-.059-.048,0-.152.072-.14.1.012.156.1.223.164A.6.6,0,0,1,339.8,235.138Z" transform="translate(-334.666 -231.916)" fill="#fff"/>
          <path id="path4683" d="M210.285,247.193a.8.8,0,0,1,.349-.308,1.614,1.614,0,0,1-.151.276.413.413,0,0,0-.046.212,1.807,1.807,0,0,0,.29-.04.352.352,0,0,1-.126.2.238.238,0,0,1-.278.024A.322.322,0,0,1,210.285,247.193Z" transform="translate(-210.207 -243.275)" fill="#fff"/>
          <path id="path4685" d="M391.88,271.782c.072-.012.156-.044.219.008a.133.133,0,0,1,.025.2c-.088.048-.2.02-.278.088.013.1.093.188.109.288,0,.064-.046.116-.076.168a.905.905,0,0,0-.093-.3c-.034-.064-.084-.128-.067-.2s.105-.124.168-.164A.525.525,0,0,1,391.88,271.782Z" transform="translate(-385.087 -267.248)" fill="#fff"/>
          <path id="path4687" d="M484.258,271.29a.388.388,0,0,1,.185-.168.787.787,0,0,0-.088.212c.034.06.088.1.118.168.008.1-.143.12-.2.056A.256.256,0,0,1,484.258,271.29Z" transform="translate(-474.238 -266.631)" fill="#fff"/>
          <path id="path4689" d="M457.944,272.126a.434.434,0,0,1,.349.06c-.076.156-.252.2-.383.292a.334.334,0,0,1,.008.064.471.471,0,0,0,.269-.032,1.245,1.245,0,0,1,.332-.132c-.093.08-.181.16-.273.236a.437.437,0,0,1-.391.052c-.063-.02-.143-.076-.122-.156.034-.1.135-.152.215-.212l-.173-.012C457.822,272.222,457.864,272.142,457.944,272.126Z" transform="translate(-448.702 -267.584)" fill="#fff"/>
          <path id="path4691" d="M547.108,276.693a.086.086,0,0,1,.055-.136.27.27,0,0,1,.261.164.45.45,0,0,1,.008.42,1,1,0,0,0-.067-.272C547.3,276.785,547.184,276.769,547.108,276.693Z" transform="translate(-534.816 -271.866)" fill="#fff"/>
          <path id="path4693" d="M580.4,279a1.122,1.122,0,0,1,.48-.112.306.306,0,0,1-.156.14c-.261.1-.526.184-.783.292a1.326,1.326,0,0,1-.252.084c-.008-.024-.021-.048-.029-.072A5.531,5.531,0,0,1,580.4,279Z" transform="translate(-566.206 -274.109)" fill="#fff"/>
        </g>
        <path id="path4697" d="M292.9-155.008h-1.3v-.123c.059-.051.138-.119.138-.159,0-.069-.163-.21-.2-.21s-.2.145-.2.21c0,.043.071.1.13.155l0,0V-155H281.25c.364.361.9.358,1.986.369.966.014.961.014,8.231,0v.13c-.059.051-.13.119-.13.159,0,.069.155.21.2.21a.442.442,0,0,0,.176-.148h.447a.2.2,0,0,0,.176.079.205.205,0,0,0,.176-.079h.535a.267.267,0,0,0,.213.079c.2-.007.251-.112.251-.473C293.506-154.983,293.3-155.015,292.9-155.008Zm.092.611h-.477a.2.2,0,0,0-.176-.083.2.2,0,0,0-.176.083h-.439a.524.524,0,0,0-.117-.112v-.13h1.388A.4.4,0,0,0,292.988-154.4Z" transform="translate(-279.206 165.036)" fill="#fff"/>
      </g>
    </g>
  </g>
</svg>
