<svg xmlns="http://www.w3.org/2000/svg" width="112.667" height="132.461" viewBox="0 0 112.667 132.461">
  <g id="Group_36" data-name="Group 36" transform="translate(-806 -3013)">
    <g id="Group_35" data-name="Group 35" transform="translate(806 3013)">
      <path id="Path_63" data-name="Path 63" d="M187.35,294.661l-9.478-81.139a1.61,1.61,0,0,0-1.6-1.423H85.782a1.611,1.611,0,0,0-1.6,1.423l-9.477,81.139a1.61,1.61,0,0,0,1.6,1.8h35.719l.032,21.122,29.216-21.122h44.479a1.609,1.609,0,0,0,1.6-1.8Z" transform="translate(-74.694 -185.119)" fill="#fff"/>
      <path id="Path_64" data-name="Path 64" d="M168.374,192.886a20.671,20.671,0,0,0-41.316.119,2,2,0,1,0,3.569-.082,17.164,17.164,0,0,1,4.995-11.326,17.05,17.05,0,0,1,24.2,0,17.149,17.149,0,0,1,5,11.391,2,2,0,1,0,3.561-.1Z" transform="translate(-90.872 -172.992)" fill="#fff"/>
    </g>
    <path id="Path_93" data-name="Path 93" d="M118.809,280.311c-4.111-.68-5.166-2.916-4.985-6.291.18-3.528,2.486-15.194,4.042-18.541,1.9-4.125,5.292-6.556,11.708-6.639h10.334c11.986,0,1.333,12.319-5.722,20.319-4.611,5.208-7.708,12.4-15.375,11.152Zm10.265-16.528h4.264v-3.194h-4.264v-4.264h-3.181v4.264h-4.264v3.194h4.264v4.264h3.181Zm31.819.778A1.882,1.882,0,1,0,159,262.673a1.891,1.891,0,0,0,1.889,1.889Zm-8.028,0a1.882,1.882,0,1,0-1.889-1.889,1.891,1.891,0,0,0,1.889,1.889Zm4.014,4.014a1.882,1.882,0,1,0-1.889-1.889,1.891,1.891,0,0,0,1.889,1.889Zm0-8.028a1.882,1.882,0,1,0-1.889-1.889,1.891,1.891,0,0,0,1.889,1.889Zm-14.819-15.208c-9.139-.153-17.694-1.278-23.847,3.861-5.541,4.639-5.819,13.153-7.444,22.014-.958,5.222-.778,8.389,2.708,10.736a13.964,13.964,0,0,0,12.25,1.041c5.333-2.277,9.764-12.555,14.75-14.236a5.144,5.144,0,0,1,3.167,0c4.986,1.681,9.417,11.958,14.75,14.236a13.963,13.963,0,0,0,12.249-1.041c3.486-2.347,3.666-5.514,2.708-10.736-1.625-8.861-1.9-17.376-7.444-22.014-6.153-5.139-14.708-4.013-23.847-3.861Z" transform="translate(720.275 2817.639)" fill="#4f008c" fill-rule="evenodd"/>
  </g>
</svg>
