<svg xmlns="http://www.w3.org/2000/svg" width="647.069" height="393.657" viewBox="0 0 647.069 393.657">
  <g id="Group_7577" data-name="Group 7577" transform="translate(-640.999 -294)">
    <g id="Group_7573" data-name="Group 7573" transform="translate(543.266 198.213)">
      <path id="Path_6948" data-name="Path 6948" d="M421.722,481.588h-.068l-.019-2,.152-2a2,2,0,0,1-.065,4Zm23.5-.687a2.035,2.035,0,0,1-2.033-1.827,1.964,1.964,0,0,1,1.744-2.155c.024,0,.134-.013.159-.014a2,2,0,0,1,.265,3.991C445.308,480.9,445.262,480.9,445.217,480.9Zm-23.582-1.316.069-2Zm-23.32-.168a2.059,2.059,0,0,1-.27-.018l-.157-.025a2,2,0,1,1,.68-3.941l-.34,1.97.365-1.966a2.015,2.015,0,0,1,1.682,2.269A1.988,1.988,0,0,1,398.315,479.417Zm70.056-2.048a2,2,0,0,1-.4-3.959l.4,1.959L468,473.4a2.014,2.014,0,0,1,2.4,1.5,1.987,1.987,0,0,1-1.464,2.392l-.15.033A2.023,2.023,0,0,1,468.371,477.369Zm-93.02-2.984a1.983,1.983,0,0,1-.541-.075,2.037,2.037,0,0,1-1.427-2.478,1.966,1.966,0,0,1,2.424-1.4l.084.023a2,2,0,0,1-.54,3.927Zm115.733-3.431a2.02,2.02,0,0,1-1.921-1.345,1.961,1.961,0,0,1,1.18-2.512l.142-.049a2,2,0,1,1,1.225,3.809A2.048,2.048,0,0,1,491.084,470.954Zm-137.907-4.406a2,2,0,0,1-.748-.147l-.137-.06a2,2,0,1,1,1.625-3.654l-.813,1.827.84-1.816a2,2,0,0,1-.767,3.85Zm159.512-4.708a2,2,0,0,1-.868-3.8l.867,1.8-.848-1.812a2.02,2.02,0,0,1,2.683.866,1.98,1.98,0,0,1-.808,2.668l-.159.08A1.991,1.991,0,0,1,512.689,461.84Zm-180.528-5.8a1.974,1.974,0,0,1-.954-.246c-.018-.009-.109-.062-.126-.072a2,2,0,1,1,2.028-3.447L332.1,454l1.041-1.708a2,2,0,0,1-.975,3.75Zm200.9-5.943a2,2,0,0,1-1.08-3.685l1.078,1.685L532,446.4a2.016,2.016,0,0,1,2.767.535,1.979,1.979,0,0,1-.477,2.744c-.025.018-.124.084-.15.1A1.991,1.991,0,0,1,533.066,450.1ZM312.6,443.026a1.991,1.991,0,0,1-1.215-.413,2.037,2.037,0,0,1-.406-2.83,1.963,1.963,0,0,1,2.77-.4l.068.053a2,2,0,0,1-1.217,3.588Zm240.623-7.631-1.378-1.452-1.247-1.566a2,2,0,0,1,2.625,3.018Zm-1.378-1.452h0Zm-257.1-6.24a1.971,1.971,0,0,1-1.344-.529l-.114-.111a2,2,0,0,1,2.829-2.828l-1.414,1.414,1.433-1.4a2.006,2.006,0,0,1-1.39,3.45Zm274.012-8.147a1.985,1.985,0,0,1-1.491-3.3l.09-.1a2,2,0,0,1,2.9,2.758A2.066,2.066,0,0,1,568.76,419.556Zm-289.825-9.231a2,2,0,0,1-1.56-.746,2.038,2.038,0,0,1,.278-2.845,1.964,1.964,0,0,1,2.785.27l.055.067a2,2,0,0,1-1.558,3.254Zm304.591-9.047a1.986,1.986,0,0,1-1.631-3.11l.05-.07a2,2,0,0,1,3.264,2.312A2.069,2.069,0,0,1,583.526,401.278ZM265.347,391.135a2,2,0,0,1-1.7-.952,2.035,2.035,0,0,1,.629-2.786,1.961,1.961,0,0,1,2.728.61l.049.08a2,2,0,0,1-1.7,3.048Zm330.6-9.8a1.938,1.938,0,0,1-.92-.231,1.964,1.964,0,0,1-.833-2.671l.041-.076a2,2,0,0,1,3.522,1.9A2.066,2.066,0,0,1,595.946,381.331Zm-341.73-10.916a2,2,0,0,1-1.829-1.187,2.038,2.038,0,0,1,.984-2.674,1.963,1.963,0,0,1,2.623.942l.048.107a2,2,0,0,1-1.015,2.639A1.967,1.967,0,0,1,254.216,370.415Zm351.61-10.354a2,2,0,0,1-1.86-2.733l1.861.732-1.844-.776a2,2,0,0,1,3.751,1.389l-.046.118A2,2,0,0,1,605.826,360.061Zm-360.1-11.583a2,2,0,0,1-1.909-1.409,2.038,2.038,0,0,1,1.294-2.541,1.963,1.963,0,0,1,2.494,1.253l.032.1a2,2,0,0,1-1.911,2.594Zm367.257-10.854a1.884,1.884,0,0,1-.49-.064,1.964,1.964,0,0,1-1.445-2.362c.007-.026.035-.136.043-.164a2,2,0,1,1,3.845,1.1A2.056,2.056,0,0,1,612.985,337.624ZM240.024,325.669a2,2,0,0,1-1.968-1.66,2.038,2.038,0,0,1,1.606-2.351,1.967,1.967,0,0,1,2.314,1.553c0,.012.02.108.021.118a2,2,0,0,1-1.631,2.311A2.1,2.1,0,0,1,240.024,325.669Zm377.317-11.1a2,2,0,0,1-1.985-2.274l1.982.274-1.978-.3a2.019,2.019,0,0,1,2.21-1.758,1.985,1.985,0,0,1,1.769,2.168l-.02.16A2,2,0,0,1,617.341,314.565Zm-380.163-12.23a2,2,0,0,1-2-1.9,2.039,2.039,0,0,1,1.877-2.144,1.973,1.973,0,0,1,2.111,1.82c0,.01.007.107.007.117a2,2,0,0,1-1.894,2.1Q237.23,302.335,237.178,302.335ZM618.814,291.06a1.964,1.964,0,0,1-2-1.957v-.086c0-.057,0-.113.007-.17s-.006-.1-.006-.157V288.6a2,2,0,0,1,4,0c0,.071,0,.141-.01.211s.009.134.009.2A2.037,2.037,0,0,1,618.814,291.06ZM237.2,278.825l-.1,0a2,2,0,0,1-1.9-2.1c0-.011.007-.108.007-.12a2,2,0,0,1,3.991.271l-1.995-.135,1.992.188A2,2,0,0,1,237.2,278.825Zm380.174-11.641a1.954,1.954,0,0,1-1.962-1.69c0-.02-.016-.128-.018-.149a2,2,0,0,1,3.978-.411,2.038,2.038,0,0,1-1.746,2.235A2.158,2.158,0,0,1,617.369,267.184Zm-377.3-11.691a2,2,0,0,1-1.967-2.373,2.04,2.04,0,0,1,2.346-1.634,1.963,1.963,0,0,1,1.6,2.3l-.016.084A2,2,0,0,1,240.069,255.493Zm373.025-11.38a2,2,0,0,1-1.941-1.523l1.943-.477-1.951.445A2,2,0,0,1,615,241.5l.036.139a2,2,0,0,1-1.465,2.419A2.03,2.03,0,0,1,613.094,244.113Zm-367.3-11.42a2,2,0,0,1-1.908-2.6l1.934.52,1.881.684A2,2,0,0,1,245.8,232.693Zm360.136-11.035a1.939,1.939,0,0,1-1.817-1.223l-.057-.151a2,2,0,0,1,3.767-1.345,2.038,2.038,0,0,1-1.16,2.584A2.059,2.059,0,0,1,605.932,221.658ZM254.3,210.774a2,2,0,0,1-1.826-2.812l.054-.118a2,2,0,1,1,3.618,1.706l-1.809-.853,1.792.89A2,2,0,0,1,254.3,210.774ZM596.084,200.3a1.931,1.931,0,0,1-1.715-1.023l-.049-.091a2,2,0,0,1,3.537-1.868,2.016,2.016,0,0,1-1.773,2.982ZM265.442,190.088a2,2,0,0,1-1.7-3.055,2.038,2.038,0,0,1,2.776-.682,1.963,1.963,0,0,1,.669,2.717l-.045.073A2,2,0,0,1,265.442,190.088Zm318.243-9.766a1.926,1.926,0,0,1-1.584-.821l-.062-.087a2,2,0,0,1,3.287-2.28,2.017,2.017,0,0,1-1.641,3.188Zm-304.643-9.4a2,2,0,0,1-1.557-3.254,2.04,2.04,0,0,1,2.84-.339,1.965,1.965,0,0,1,.332,2.779l-.055.067A2,2,0,0,1,279.042,170.918Zm289.94-8.885a1.993,1.993,0,0,1-1.48-.655l1.479-1.345-1.523,1.3a2,2,0,0,1,2.93-2.724l.073.081a2,2,0,0,1-1.479,3.345Zm-274.091-8.481a2,2,0,0,1-1.381-3.447,2.035,2.035,0,0,1,2.85.029,1.962,1.962,0,0,1-.011,2.789l-.079.076A1.989,1.989,0,0,1,294.891,153.552Zm257.215-7.889a1.99,1.99,0,0,1-1.306-.486l1.307-1.514-1.358,1.47a2,2,0,0,1,2.586-3.051l.08.068a2,2,0,0,1-1.309,3.513Zm-239.363-7.414a2,2,0,0,1-1.18-3.616,2.039,2.039,0,0,1,2.815.392,1.963,1.963,0,0,1-.351,2.759l-.107.081A1.994,1.994,0,0,1,312.743,138.249Zm220.585-6.774a1.934,1.934,0,0,1-1.067-.324l-.08-.053a2,2,0,1,1,2.218-3.328,2.037,2.037,0,0,1,.594,2.793A2,2,0,0,1,533.328,131.475Zm-200.991-6.23a2,2,0,0,1-.976-3.747,2.035,2.035,0,0,1,2.747.73,1.964,1.964,0,0,1-.684,2.7l-.115.066A1.991,1.991,0,0,1,332.337,125.245ZM513,119.705a1.94,1.94,0,0,1-.87-.207l-.077-.039a2,2,0,1,1,1.789-3.578,2.037,2.037,0,0,1,.932,2.7A1.992,1.992,0,0,1,513,119.705Zm-159.617-4.957a2,2,0,0,1-.784-3.84l.092-.039a2,2,0,1,1,1.543,3.69l-.772-1.845.7,1.874A2,2,0,0,1,353.384,114.748Zm138-4.219a1.985,1.985,0,0,1-.673-.118l.673-1.883-.725,1.865a2,2,0,0,1,1.285-3.788l.113.04a2,2,0,0,1-.673,3.884Zm-115.811-3.6a2,2,0,0,1-.539-3.926,2.039,2.039,0,0,1,2.508,1.373,1.964,1.964,0,0,1-1.344,2.455l-.083.023A2.035,2.035,0,0,1,375.57,106.934Zm93.2-2.836a2.01,2.01,0,0,1-.439-.049l.438-1.952-.491,1.94a2,2,0,0,1,.811-3.917l.117.026a2,2,0,0,1-.436,3.952Zm-70.231-2.169a2,2,0,0,1-.3-3.977l.393,1.963.221,1.99A2.03,2.03,0,0,1,398.539,101.929Zm47-1.421c-.057,0-.114,0-.173-.007l-.113-.011a2,2,0,1,1,.4-3.98,2.036,2.036,0,0,1,1.835,2.18A1.965,1.965,0,0,1,445.537,100.508Zm-23.587-.722a2,2,0,0,1-.033-4,2.031,2.031,0,0,1,2.077,1.948,1.964,1.964,0,0,1-1.89,2.048l-.119,0Z" fill="#babad3"/>
    </g>
    <circle id="Ellipse_210" data-name="Ellipse 210" cx="134.525" cy="134.525" r="134.525" transform="translate(837 352.378)" fill="#ececec"/>
    <path id="Path_6950" data-name="Path 6950" d="M368.233,302.66,382.1,275.648,336.03,247.071l4.5-29.07-24.2-25.38.573-23.588L294.34,147.047l-9.132-18.926L144.547,195.995a12.1,12.1,0,0,0-5.622,16.106l85.622,177.443a12.1,12.1,0,0,0,16.106,5.622L380.344,327.76Z" transform="translate(503.266 198.213)" fill="#ff6b38"/>
    <path id="Path_6951" data-name="Path 6951" d="M316.266,192.1l.573-23.587-9.252-9.015L150.342,235.375l25.2,52.22L334.283,211Z" transform="translate(503.266 198.213)" fill="#c14920"/>
    <g id="Group_7576" data-name="Group 7576" transform="translate(503.266 198.213)" opacity="0.71">
      <circle id="Ellipse_211" data-name="Ellipse 211" cx="18.571" cy="18.571" r="18.571" transform="translate(227.931 350.972) rotate(-59.584)" fill="#c14920" opacity="0.71"/>
      <circle id="Ellipse_212" data-name="Ellipse 212" cx="18.571" cy="18.571" r="18.571" transform="matrix(0.33, -0.944, 0.944, 0.33, 247.927, 346.975)" fill="#c14920" opacity="0.71"/>
    </g>
    <path id="Path_6952" data-name="Path 6952" d="M456.965,431.413l152.122,57.261a12.1,12.1,0,0,0,15.539-7.04l69.407-184.391a12.1,12.1,0,0,0-7.04-15.538L535.878,224.823l-7.4,19.666-.354,31.5-17.472,15.856-1.681,35.029-24.152,16.792L495.9,396.734l-29.119,8.6Z" transform="translate(593.266 198.213)" fill="#ff6b38"/>
    <path id="Path_6953" data-name="Path 6953" d="M528.257,275.157l-17.472,15.856-1.252,26.078,154.9,58.307,20.426-54.265L528.4,262.24Z" transform="translate(593.266 198.213)" fill="#c14920"/>
    <rect id="Rectangle_1786" data-name="Rectangle 1786" width="67.659" height="10.977" transform="translate(1139.823 628.468) rotate(20.627)" fill="#c14920"/>
    <rect id="Rectangle_1787" data-name="Rectangle 1787" width="106.893" height="10.977" transform="matrix(0.936, 0.352, -0.352, 0.936, 1109.646, 597.266)" fill="#c14920"/>
    <text id="_404" data-name="404" transform="translate(899 501)" fill="#ff6b38" font-size="84" font-family="SegoeUI-Bold, Segoe UI" font-weight="700"><tspan x="0" y="0">404</tspan></text>
    <text id="Page_not_found" data-name="Page not found" transform="translate(899 544)" fill="#2d2d2d" font-size="20" font-family="SegoeUI-Bold, Segoe UI" font-weight="700"><tspan x="0" y="0">Page not found</tspan></text>
  </g>
</svg>
