<svg xmlns="http://www.w3.org/2000/svg" width="275" height="262.417" viewBox="0 0 275 262.417">
  <path id="Path_6947" data-name="Path 6947" d="M396.9,615.537a17.714,17.714,0,1,1-17.713-17.716A17.651,17.651,0,0,1,396.9,615.537ZM548.742,448.8a9.975,9.975,0,0,0-19.443-4.464l-8.021,42.307-8,42.211-4.858-.048-71.393.037-72.721.038-17.658-66.76L331.23,403.839a10.044,10.044,0,0,0-4.876-6.333l-37.578-13.223a9.971,9.971,0,1,0-9.609,17.475l33.77,11.13L330.5,479.3l15.651,59.184c.107.394,2.308,8.205,7.526,9.818a9.262,9.262,0,0,0,2.694.445l81.425.01,71.938.009v9.43c0,11.672-9.492,14.083-21.159,14.083H436.252l-70.991,0a7.356,7.356,0,0,0-.176,14.7l.147.006H488.575c19.778,0,35.868-9.011,35.868-28.8v-9.667l1.635-.912a9.976,9.976,0,0,0,4.836-6.484l9.8-50.753ZM492.7,597.822a17.717,17.717,0,1,0,17.716,17.716A17.715,17.715,0,0,0,492.7,597.822ZM458.531,378.6c0-5.453-4.446-7.763-9.911-7.763H429.573c-5.454,0-9.891,2.31-9.891,7.763v46.239H390.035c-3.564,0-5,.925-5.186,1.172-.066.24,0,1.856,1.881,4.626l45.579,54.615.2.287c1.958,2.8,4.3,4.337,6.586,4.337s4.621-1.539,6.575-4.333l.43-.562,45.392-54.348c1.882-2.758,1.945-4.371,1.855-4.659-.164-.2-1.606-1.134-5.2-1.134H458.531V378.6Z" transform="translate(-273.997 -370.833)" fill="#cbcbcb"/>
</svg>
