<svg xmlns="http://www.w3.org/2000/svg" xmlns:xlink="http://www.w3.org/1999/xlink" width="337.099" height="428.861" viewBox="0 0 337.099 428.861">
  <defs>
    <clipPath id="clip-path">
      <rect id="Rectangle_1784" data-name="Rectangle 1784" width="219.023" height="191.645" transform="matrix(0.966, -0.259, 0.259, 0.966, 0, 56.687)" fill="none"/>
    </clipPath>
  </defs>
  <g id="Group_7572" data-name="Group 7572" transform="translate(-748.45 -568.826)">
    <g id="Group_7569" data-name="Group 7569" transform="translate(51.271 334.032)">
      <g id="Group_7564" data-name="Group 7564" transform="translate(697.179 171.282)">
        <path id="Path_6946" data-name="Path 6946" d="M17.6,0A17.6,17.6,0,1,1,0,17.6,17.6,17.6,0,0,1,17.6,0Z" transform="matrix(0.395, -0.919, 0.919, 0.395, 56.08, 119.428)" fill="#4f008c"/>
        <circle id="Ellipse_206" data-name="Ellipse 206" cx="8.8" cy="8.8" r="8.8" transform="translate(314.104 79.772) rotate(-67.5)" fill="#ff6b38"/>
        <circle id="Ellipse_207" data-name="Ellipse 207" cx="8.8" cy="8.8" r="8.8" transform="translate(0 66.21)" fill="#ff6b38"/>
      </g>
      <g id="Group_7568" data-name="Group 7568" transform="translate(720.102 271.646)">
        <ellipse id="Ellipse_208" data-name="Ellipse 208" cx="123.201" cy="10.267" rx="123.201" ry="10.267" transform="translate(21.077 371.475)" fill="#d5d5d5"/>
        <path id="Path_6936" data-name="Path 6936" d="M1019.53,771.844,807.97,828.531a27.378,27.378,0,0,0-19.359,33.531l35.43,132.225a27.378,27.378,0,0,0,33.531,19.359l211.56-56.687a27.378,27.378,0,0,0,19.359-33.531L1053.061,791.2A27.377,27.377,0,0,0,1019.53,771.844Z" transform="translate(-779.626 -666.064)" fill="#4f008c"/>
        <g id="Group_7567" data-name="Group 7567">
          <g id="Group_7566" data-name="Group 7566" clip-path="url(#clip-path)">
            <g id="Group_7565" data-name="Group 7565" transform="translate(47.39 28.632)">
              <path id="Path_6937" data-name="Path 6937" d="M995.165,637.089,984.07,616.543c-1.865-3.314-3.68-6.6-5.7-9.583-1.99-2.876-4.2-5.906-5.764-6.609a54.468,54.468,0,0,0-8.64-4.756c-1.121-.524-2.322-.43-1.207-.322a4.271,4.271,0,0,0,2.454-1.031c.595-.472.656-.816.641-.517a72.52,72.52,0,0,0-.511,8.934c-.4,4.114.306,8.152-3.154,15.394-4.531,6.628-8.4,8.018-11.747,10.44a68.568,68.568,0,0,0-7.47,4.913c-.249.161.019-.067.131-.823a4.291,4.291,0,0,0-.336-2.656c-.655-.919-.139.168.873.876a55.378,55.378,0,0,0,8.437,5.1c1.383,1.013,5.11,1.394,8.594,1.685,3.591.254,7.344.194,11.145.145l23.344-.641a126.1,126.1,0,0,1-21.92,9.263,105.739,105.739,0,0,1-11.855,2.911c-4.17.674-8.4,1.346-14.332-.3a47.178,47.178,0,0,1-12.353-5.033c-2.132-1.462-4.756-2.9-7.079-7.342a12.566,12.566,0,0,1-.839-8.3,15.609,15.609,0,0,1,2.923-5.841c4.28-5.093,7.813-6.686,10.922-9.052a30.338,30.338,0,0,0,5.758-4.464c.105.284.873-3.7,1-7.218.5-3.874.095-7.736,2.386-13.977a15.573,15.573,0,0,1,3.591-5.443,12.542,12.542,0,0,1,7.593-3.417c5-.211,7.555,1.341,9.886,2.455a47.477,47.477,0,0,1,10.527,8.184c4.4,4.3,5.914,8.308,7.419,12.252a104.106,104.106,0,0,1,3.41,11.718A126.561,126.561,0,0,1,995.165,637.089Z" transform="translate(-918.283 -568.369)" fill="#f62459"/>
              <path id="Path_6938" data-name="Path 6938" d="M1102.548,616.936a126.527,126.527,0,0,1-9.24-21.924,104.04,104.04,0,0,1-2.906-11.853c-.669-4.168-1.356-8.4.3-14.32a47.507,47.507,0,0,1,5.025-12.351c1.461-2.131,2.9-4.751,7.334-7.069a12.541,12.541,0,0,1,8.284-.837,15.576,15.576,0,0,1,5.831,2.919c5.1,4.259,6.687,7.805,9.055,10.911,1.868,2.979,4.528,6.048,4.476,5.75a30.334,30.334,0,0,0,7.219.987c3.875.493,7.731.107,13.985,2.378a15.6,15.6,0,0,1,5.452,3.6,12.564,12.564,0,0,1,3.423,7.607c.211,5.01-1.344,7.565-2.459,9.9a47.168,47.168,0,0,1-8.181,10.535c-4.314,4.394-8.312,5.926-12.26,7.427A105.7,105.7,0,0,1,1126.162,614a126.107,126.107,0,0,1-23.614,2.938l20.537-11.117c3.317-1.858,6.6-3.682,9.579-5.7,2.872-1.993,5.909-4.187,6.6-5.756a55.343,55.343,0,0,0,4.759-8.632c.523-1.12.427-2.319.318-1.2a4.291,4.291,0,0,0,1.037,2.468c.475.6.822.662.525.647a68.5,68.5,0,0,0-8.926-.519c-4.112-.424-8.156.306-15.394-3.168-6.617-4.542-8.023-8.393-10.429-11.755a72.536,72.536,0,0,0-4.909-7.481c-.163-.251.063.017.814.128a4.27,4.27,0,0,0,2.641-.334c.911-.651-.176-.132-.885.882a54.483,54.483,0,0,0-5.1,8.439c-1.006,1.392-1.4,5.12-1.688,8.605-.253,3.593-.183,7.344-.141,11.147Z" transform="translate(-1025.666 -548.217)" fill="#f62459"/>
              <path id="Path_6939" data-name="Path 6939" d="M1104.861,852.773l-141.04,37.792L985.079,969.9a9.126,9.126,0,0,0,11.177,6.453l123.41-33.068a9.126,9.126,0,0,0,6.453-11.177Z" transform="translate(-942.883 -748.547)" fill="#ffbf3b"/>
              <rect id="Rectangle_1783" data-name="Rectangle 1783" width="146.015" height="18.252" transform="translate(20.938 142.018) rotate(-15)" fill="#ea8f2c"/>
              <path id="Path_6940" data-name="Path 6940" d="M1073.432,748.151l-158.67,42.516-11.81-44.075a9.126,9.126,0,0,1,6.453-11.177l141.04-37.791a9.126,9.126,0,0,1,11.177,6.453Z" transform="translate(-902.639 -646.287)" fill="#ffbf3b"/>
              <path id="Path_6941" data-name="Path 6941" d="M1140.168,896.933,1115.6,752.349l8.815-2.362,51.012,137.5Z" transform="translate(-1042.72 -680.937)" fill="#f62459"/>
              <path id="Path_6942" data-name="Path 6942" d="M1127.293,749.02l55.53,14.567a4.519,4.519,0,0,1,1.857,7.806,25.91,25.91,0,0,0-9.318,16.14,4.519,4.519,0,0,1-7.689,2.295Z" transform="translate(-1050.411 -680.3)" fill="#f62459"/>
              <circle id="Ellipse_209" data-name="Ellipse 209" cx="9.126" cy="9.126" r="9.126" transform="translate(67.787 78.969) rotate(-87.606)" fill="#f62459"/>
              <path id="Path_6943" data-name="Path 6943" d="M1046.236,749.02l-14.567,55.53a4.52,4.52,0,0,1-7.806,1.858,25.906,25.906,0,0,0-16.14-9.318,4.519,4.519,0,0,1-2.294-7.689Z" transform="translate(-969.355 -680.3)" fill="#f62459"/>
            </g>
          </g>
        </g>
        <path id="Path_6944" data-name="Path 6944" d="M0,56.687,211.56,0" transform="translate(49.601 185.115)" fill="none" stroke="#c67bff" stroke-width="16"/>
        <line id="Line_23" data-name="Line 23" y1="28.342" x2="105.772" transform="translate(60.23 253.128)" fill="none" stroke="#fff" stroke-miterlimit="10" stroke-width="16"/>
        <line id="Line_24" data-name="Line 24" y1="21.256" x2="79.327" transform="translate(67.316 286.659)" fill="none" stroke="#fff" stroke-miterlimit="10" stroke-width="16"/>
      </g>
    </g>
    <g id="Group_7571" data-name="Group 7571" transform="matrix(0.995, 0.105, -0.105, 0.995, 116.507, -92.224)">
      <g id="Group_7570" data-name="Group 7570" transform="translate(968 821.501) rotate(-21)">
        <path id="Path_63" data-name="Path 63" d="M55.113,40.391,50.476.7a.788.788,0,0,0-.782-.7H5.424a.788.788,0,0,0-.783.7L.005,40.391a.788.788,0,0,0,.783.879H18.262L18.278,51.6,32.571,41.27h21.76a.787.787,0,0,0,.782-.879Z" transform="translate(0 13.199)" fill="#fff"/>
        <path id="Path_64" data-name="Path 64" d="M20.307,9.733a10.123,10.123,0,0,0-2.955-6.757,10.082,10.082,0,0,0-14.3,0A10.131,10.131,0,0,0,.095,9.791a.98.98,0,1,0,1.746-.04A8.4,8.4,0,0,1,4.284,4.21a8.341,8.341,0,0,1,11.837,0,8.389,8.389,0,0,1,2.444,5.573.978.978,0,1,0,1.742-.05Z" transform="translate(17.609 0)" fill="#fff"/>
      </g>
      <path id="Path_6945" data-name="Path 6945" d="M4.178,17.211c-2.011-.333-2.527-1.427-2.439-3.078A42.6,42.6,0,0,1,3.716,5.062c.931-2.018,2.589-3.207,5.728-3.248H14.5c5.864,0,.652,6.027-2.8,9.941C9.444,14.3,7.929,17.822,4.178,17.211ZM9.2,9.125h2.086V7.563H9.2V5.477H7.644V7.563H5.557V9.125H7.644v2.086H9.2Zm15.566.381a.921.921,0,1,0-.924-.924.925.925,0,0,0,.924.924Zm-3.927,0a.921.921,0,1,0-.924-.924.925.925,0,0,0,.924.924ZM22.8,11.47a.921.921,0,1,0-.924-.924.925.925,0,0,0,.924.924Zm0-3.927a.921.921,0,1,0-.924-.924.925.925,0,0,0,.924.924ZM15.552.1C11.082.028,6.9-.523,3.886,1.991,1.175,4.26,1.039,8.426.244,12.761c-.469,2.555-.381,4.1,1.325,5.252a6.831,6.831,0,0,0,5.993.509c2.609-1.114,4.777-6.142,7.216-6.964a2.517,2.517,0,0,1,1.549,0c2.439.822,4.607,5.85,7.216,6.964a6.831,6.831,0,0,0,5.993-.509c1.705-1.148,1.794-2.7,1.325-5.252-.795-4.335-.931-8.5-3.642-10.77C24.209-.523,20.023.028,15.552.1Z" transform="translate(987.934 839.93) rotate(-21)" fill="#4f008c" fill-rule="evenodd"/>
    </g>
  </g>
</svg>
